<?xml version="1.0" standalone="no"?>
<!DOCTYPE svg PUBLIC "-//W3C//DTD SVG 20010904//EN"
 "http://www.w3.org/TR/2001/REC-SVG-20010904/DTD/svg10.dtd">
<svg version="1.0" xmlns="http://www.w3.org/2000/svg"
 width="512.000000pt" height="512.000000pt" viewBox="0 0 512.000000 512.000000"
 preserveAspectRatio="xMidYMid meet">

<g transform="translate(0.000000,512.000000) scale(0.100000,-0.100000)"
fill="#000000" stroke="none">
<path d="M505 5110 c-225 -26 -411 -187 -482 -416 -17 -56 -18 -149 -18 -2134
0 -1985 1 -2078 18 -2134 62 -199 204 -341 403 -403 56 -17 149 -18 2134 -18
1985 0 2078 1 2134 18 199 62 341 204 403 403 17 56 18 149 18 2134 0 1985 -1
2078 -18 2134 -61 197 -197 335 -397 402 -53 18 -135 19 -2095 20 -1122 1
-2067 -2 -2100 -6z m2976 -998 c191 -77 257 -282 160 -489 -16 -32 -348 -503
-740 -1046 -391 -543 -711 -989 -711 -992 0 -2 310 -6 688 -7 l688 -3 59 -30
c101 -52 148 -134 147 -262 -1 -112 -67 -208 -181 -262 l-56 -26 -932 -3
c-1016 -3 -1014 -3 -1109 53 -57 34 -110 98 -130 158 -27 80 -16 205 24 287
18 36 353 513 745 1060 l713 995 -626 5 -625 5 -57 28 c-99 49 -149 130 -149
245 0 143 73 248 204 294 49 17 107 18 942 15 l890 -2 56 -23z"/>
</g>
</svg>
